<?xml version="1.0" standalone="no"?><!DOCTYPE svg PUBLIC "-//W3C//DTD SVG 1.1//EN" "http://www.w3.org/Graphics/SVG/1.1/DTD/svg11.dtd"><svg t="1753867196388" class="icon" viewBox="0 0 1024 1024" version="1.1" xmlns="http://www.w3.org/2000/svg" p-id="5542" xmlns:xlink="http://www.w3.org/1999/xlink" width="200" height="200"><path d="M512.000512 76.893274c-239.311411 0-435.107749 195.796338-435.107749 435.106726 0 239.310388 195.796338 435.105702 435.107749 435.105702 239.306294 0 435.105702-195.795315 435.105702-435.105702C947.106214 272.689612 751.306806 76.893274 512.000512 76.893274L512.000512 76.893274 512.000512 76.893274 512.000512 76.893274M693.290461 642.534985c14.503319 14.505365 14.503319 36.258809 0 50.757011-14.496156 14.504342-36.248575 14.504342-50.753941 0L512.000512 562.763151 381.462456 693.290973c-14.497179 14.504342-36.249599 14.504342-50.762127 0-14.498202-14.498202-14.498202-36.251645 0-50.757011l130.534985-130.534985L330.700329 381.463991c-14.498202-14.495132-14.498202-36.247552 0-50.763151 14.513552-14.497179 36.264948-14.497179 50.762127 0l130.537032 130.534985 130.536009-130.534985c14.503319-14.497179 36.257785-14.497179 50.753941 0 14.503319 14.515598 14.503319 36.268018 0 50.763151L562.762639 512 693.290461 642.534985 693.290461 642.534985 693.290461 642.534985 693.290461 642.534985M693.290461 642.534985 693.290461 642.534985z" fill="#272536" p-id="5543"></path></svg>